
            <svg width="3206.0357424847584" height="1016.2083598102745" xmlns="http://www.w3.org/2000/svg" xmlns:xlink="http://www.w3.org/1999/xlink" version="1.1">
                <g transform="scale(10.30178712423793) translate(10, 10)">
                    <g id="SvgjsG1249" rel="mainfill" name="main_text" transform="translate(81.43244715606242,10.132698059082017)" fill="#1c668c"><path fill="#1c668c" d="M19.674 24.23421875 l-1.8047 1.1279 q-2.336425781 -3.125976563 -6.380859375 -3.125976563 q-3.238769531 0 -5.373779297 2.078613281 t-2.135 5.0596 q0 1.93359375 0.9829101563 3.649658203 t2.6909 2.6506 t3.835 0.93457 q3.915527344 0 6.380859375 -3.09375 l1.8047 1.1763 q-1.272949219 1.901367188 -3.407958984 2.940673828 t-4.8743 1.0393 q-4.173339844 0 -6.936767578 -2.658691406 t-2.7634 -6.4614 q0 -2.578125 1.297119141 -4.777587891 t3.5449 -3.4321 t5.0515 -1.2327 q1.740234375 0 3.375732422 0.5317382813 t2.7795 1.3938 t1.9336 2.1995 z M23.7187171875 20.56021875 l2.2881 0 l0 8.25 q0 3.029296875 0.322265625 4.157226563 q0.4833984375 1.627441406 1.853027344 2.570068359 t3.2871 0.94263 q1.901367188 0 3.22265625 -0.9184570313 t1.8208 -2.417 q0.3544921875 -1.015136719 0.3544921875 -4.334472656 l0 -8.25 l2.3203 0 l0 8.6851 q0 3.657714844 -0.8620605469 5.502685547 t-2.5701 2.8843 t-4.2861 1.0393 q-2.594238281 0 -4.318359375 -1.039306641 t-2.5781 -2.9165 t-0.854 -5.6477 l0 -8.5078 z M53.09305859375 22.49421875 l-1.4502 1.5146 q-1.836914063 -1.772460938 -3.561035156 -1.772460938 q-1.111816406 0 -1.901367188 0.7250976563 t-0.78955 1.7241 q0 0.837890625 0.6606445313 1.611328125 q0.64453125 0.8217773438 2.723144531 1.885253906 q2.545898438 1.305175781 3.448242188 2.529785156 q0.8862304688 1.240722656 0.8862304688 2.787597656 q0 2.159179688 -1.522705078 3.665771484 t-3.8108 1.5066 q-1.530761719 0 -2.924560547 -0.6525878906 t-2.2961 -1.8289 l1.4341 -1.6274 q1.740234375 1.965820313 3.689941406 1.965820313 q1.353515625 0 2.312255859 -0.8781738281 t0.95874 -2.0544 q0 -0.9829101563 -0.6284179688 -1.740234375 t-2.8521 -1.9014 q-2.400878906 -1.208496094 -3.254882813 -2.433105469 q-0.8701171875 -1.192382813 -0.8701171875 -2.739257813 q0 -2.014160156 1.377685547 -3.343505859 t3.4563 -1.3293 q2.433105469 0 4.914550781 2.384765625 z M63.47018359375 36.15821875 q-1.67578125 0.90234375 -3.287109375 0.1450195313 q-1.965820313 -1.498535156 -1.869140625 -4.270019531 l0 -7.4766 l4.1895 0 l0 -1.9497 l-4.2056 0 l0 -8.54 l-2.2881 0 l0 18.353 q-0.0322265625 1.93359375 0.8862304688 3.544921875 q1.514648438 2.562011719 4.125 2.70703125 q1.385742188 0.04833984375 3.158203125 -0.6284179688 q-0.2739257813 -0.6767578125 -0.708984375 -1.885253906 z M76.15090234375 20.10921875 q4.076660156 0 6.767578125 2.948730469 q2.433105469 2.70703125 2.433105469 6.396972656 t-2.5781 6.4534 t-6.6226 2.7634 q-4.060546875 0 -6.630615234 -2.763427734 t-2.5701 -6.4534 q0 -3.673828125 2.433105469 -6.380859375 q2.690917969 -2.96484375 6.767578125 -2.96484375 z M76.15090234375 22.33321875 q-2.819824219 0 -4.850097656 2.094726563 t-2.0303 5.0596 q0 1.917480469 0.9265136719 3.585205078 t2.5056 2.562 t3.4482 0.89429 q1.901367188 0 3.472412109 -0.8942871094 t2.4895 -2.562 t0.91846 -3.5852 q0 -2.96484375 -2.030273438 -5.059570313 t-4.8501 -2.0947 z M89.50931875 31.80761875 l0 -2.8198 q0.2900390625 -3.609375 1.514648438 -5.28515625 q1.015136719 -1.530761719 2.658691406 -2.433105469 q1.079589844 -0.6928710938 3.077636719 -0.7412109375 q1.2890625 0 2.610351563 0.4833984375 t2.0464 1.2891 t1.4663 2.417 q0.4028320313 -1.03125 1.691894531 -2.416992188 q0.6284179688 -0.5317382813 1.627441406 -1.047363281 q0.6767578125 -0.4350585938 3.142089844 -0.7250976563 q1.836914063 0 3.528808594 0.9184570313 t2.3767 2.5862 t0.68481 4.9709 l0 9.6519 l-2.3203 0 l0 -9.6519 q0 -2.8359375 -0.4028320313 -3.899414063 t-1.3857 -1.7161 t-2.3687 -0.65259 q-2.610351563 0.1772460938 -4.463378906 2.529785156 q-0.7250976563 0.9990234375 -1.095703125 4.431152344 l0 8.959 l-2.272 0 l0 -9.0557 q0 -3.190429688 -0.708984375 -4.342529297 t-1.6919 -1.8369 t-2.4492 -0.68481 q-1.579101563 0 -2.715087891 0.8056640625 t-1.7805 2.4089 t-0.51563 5.2126 l0 7.4927 l-2.2559 0 l0 -6.8481 z M120.6724046875 31.80761875 l0 -2.8198 q0.2900390625 -3.609375 1.514648438 -5.28515625 q1.015136719 -1.530761719 2.658691406 -2.433105469 q1.079589844 -0.6928710938 3.077636719 -0.7412109375 q1.2890625 0 2.610351563 0.4833984375 t2.0464 1.2891 t1.4663 2.417 q0.4028320313 -1.03125 1.691894531 -2.416992188 q0.6284179688 -0.5317382813 1.627441406 -1.047363281 q0.6767578125 -0.4350585938 3.142089844 -0.7250976563 q1.836914063 0 3.528808594 0.9184570313 t2.3767 2.5862 t0.68481 4.9709 l0 9.6519 l-2.3203 0 l0 -9.6519 q0 -2.8359375 -0.4028320313 -3.899414063 t-1.3857 -1.7161 t-2.3687 -0.65259 q-2.610351563 0.1772460938 -4.463378906 2.529785156 q-0.7250976563 0.9990234375 -1.095703125 4.431152344 l0 8.959 l-2.272 0 l0 -9.0557 q0 -3.190429688 -0.708984375 -4.342529297 t-1.6919 -1.8369 t-2.4492 -0.68481 q-1.579101563 0 -2.715087891 0.8056640625 t-1.7805 2.4089 t-0.51563 5.2126 l0 7.4927 l-2.2559 0 l0 -6.8481 z M160.213890625 20.10921875 q4.076660156 0 6.767578125 2.948730469 q2.481445313 2.690917969 2.481445313 6.396972656 q0.0322265625 9.15234375 0 9.297363281 l-2.4009 0 l0 -4.0122 q-1.885253906 3.512695313 -6.848144531 3.931640625 q-4.060546875 0 -6.630615234 -2.763427734 t-2.5701 -6.4534 q0 -3.673828125 2.433105469 -6.380859375 q2.690917969 -2.96484375 6.767578125 -2.96484375 z M160.213890625 22.33321875 q-2.819824219 0 -4.850097656 2.094726563 t-2.0303 5.0596 q0 1.917480469 1.039306641 3.689941406 t3.5208 2.9971 q6.219726563 1.385742188 8.846191406 -5.655761719 q0.1450195313 -2.255859375 -0.4833984375 -4.318359375 q-0.451171875 -0.9345703125 -1.240722656 -1.772460938 q-1.981933594 -2.094726563 -4.801757813 -2.094726563 z M171.9770528125 20.56021875 l2.4009 0 l6.0747 13.616 l5.8975 -13.616 l2.4331 0 l-10.554 24.122 l-2.4009 0 l3.3999 -7.7827 z M208.038921875 35.22361875 q1.450195313 -2.416992188 1.740234375 -4.753417969 q0 -16.77392578 0 -16.74169922 l-2.2559 0 l0 9.8613 q-1.434082031 -1.756347656 -3.206542969 -2.618408203 t-3.8833 -0.86206 q-3.73828125 0 -6.396972656 2.723144531 t-2.6587 6.6064 q0 3.818847656 2.674804688 6.525878906 t6.4453 2.707 q2.159179688 0 4.052490234 -0.8298339844 t3.4885 -2.6184 z M200.69092187500002 36.49661875 q-1.917480469 0 -3.520751953 -0.9426269531 t-2.554 -2.6184 t-0.95068 -3.5771 q0 -1.869140625 0.9587402344 -3.585205078 t2.5781 -2.6587 t3.4563 -0.94263 q1.869140625 0 3.544921875 0.9426269531 t2.5781 2.562 t0.90234 3.6174 q0 3.077636719 -2.030273438 5.140136719 t-4.9629 2.0625 z" style="fill: #1c668c;"/></g><g id="SvgjsG1250" fill="#1c668c" transform="translate(-0.00804795149423771,-0.00804795149423771) scale(1.373517055016569)" rel="inversefill" name="monogram_container">   <title>assets</title>   <path d="M473.11,303l-21.41-12.36a3.39,3.39,0,0,1-1.69-2.94V263a3.39,3.39,0,0,1,1.69-2.94l21.41-12.36a3.39,3.39,0,0,1,3.39,0l21.41,12.36A3.39,3.39,0,0,1,499.6,263v24.73a3.39,3.39,0,0,1-1.69,2.94L476.5,303A3.39,3.39,0,0,1,473.11,303Z" transform="translate(-450 -247.24)" fill="#1c668c" style="fill: #1c668c;"/> </g><defs id="SvgjsDefs1248"/><g id="SvgjsG1251" rel="symbolfill" name="monogram" transform="translate(4.740011076505333,5.48289977189442)" fill="#ffffff"><path fill="#ffffff" d="M11.394 24.57 l0 19.062 c0 0.918 0.756 1.674 1.728 1.674 l9.234 0 l0 8.694 l-9.234 0 c-5.778 0 -10.422 -4.644 -10.422 -10.368 l0 -19.062 c0 -5.778 4.644 -10.422 10.422 -10.422 l8.802 0 l0 8.694 l-8.802 0 c-0.972 0 -1.728 0.756 -1.728 1.728 z M27.594 13.661999999999999 l-0.54 0 l0.54 0 z M54.864000000000004 13.716000000000001 l0.594 0 l0 39.798 l0.486 0.486 l-9.666 0 l0.486 -0.486 l0 -9.774 l0.27 -9.666 l-5.778 6.426 l-5.832 -6.426 l0.324 9.882 l0 9.558 l0.486 0.486 l-9.666 0 l0.486 -0.486 l0 -39.852 l0.54 0 l13.662 15.336 z" style="fill: #ffffff;"/></g>
                </g>
            </svg>
        